<svg width="481" height="337" viewBox="0 0 481 337" fill="none" xmlns="http://www.w3.org/2000/svg">
<path d="M473.832 218.552C449.276 213.573 424.241 211.354 399.192 211.936C413.592 175.496 416.56 131.56 407.88 80.968C407.692 79.8862 407.284 78.8546 406.681 77.9373C406.077 77.0201 405.291 76.237 404.372 75.6366C403.453 75.0363 402.42 74.6316 401.337 74.4477C400.255 74.2639 399.146 74.3048 398.08 74.568C371.048 82.175 345.301 93.7691 321.688 108.968C306.327 67.0764 280.029 30.0616 245.528 1.768C243.98 0.572235 242.047 -0.0148142 240.095 0.117856C238.144 0.250526 236.308 1.09372 234.936 2.488C199.456 38.576 175.736 75.656 164.12 112.888C138.955 95.7805 111.2 82.8362 81.92 74.552C80.854 74.2888 79.7453 74.2479 78.6629 74.4317C77.5804 74.6156 76.5474 75.0203 75.6281 75.6206C74.7088 76.221 73.9229 77.0041 73.3194 77.9213C72.7158 78.8386 72.3076 79.8702 72.12 80.952C63.44 131.544 66.44 175.472 80.808 211.92C55.7592 211.338 30.7239 213.557 6.168 218.536C5.04632 218.797 3.99468 219.298 3.0858 220.005C2.17692 220.713 1.43249 221.609 0.903998 222.632C0.372845 223.652 0.0678834 224.775 0.00989971 225.923C-0.048084 227.072 0.142275 228.22 0.567999 229.288C35.336 316.344 103.104 336.4 158.168 336.4C185.99 336.224 213.609 331.644 240 322.832C266.391 331.657 294.013 336.247 321.84 336.432C376.896 336.432 444.672 316.368 479.44 229.32C479.866 228.252 480.056 227.104 479.998 225.955C479.94 224.807 479.635 223.684 479.104 222.664C478.576 221.637 477.832 220.737 476.921 220.027C476.011 219.317 474.957 218.814 473.832 218.552V218.552ZM381.456 212.8C352.162 214.602 323.567 222.504 297.504 236C296.105 236.341 294.826 237.061 293.808 238.08V238.08C277.614 247.43 263.491 259.975 252.296 274.952C252.646 260.177 251.279 245.412 248.224 230.952C257.824 190.336 282.504 155.752 321.824 128.088C343.9 112.86 368.062 100.904 393.56 92.592C400.392 139.648 396.264 180 381.456 212.8ZM241.192 18.944C255.28 31.416 292.72 68.28 307.952 118.52C277.564 139.898 253.973 169.573 240 204C227.039 171.803 205.536 143.755 177.808 122.88C187.48 88.168 208.688 53.256 241.192 18.944ZM86.472 92.544C114.197 101.567 140.314 114.933 163.848 132.144V132.144C197.641 155.815 221.763 190.881 231.784 230.904C228.722 245.363 227.353 260.129 227.704 274.904C195.296 231.384 143.784 216.392 98.536 212.76C83.736 180 79.608 139.64 86.472 92.568V92.544ZM147.152 320.448C87.256 317.2 44.272 287.552 19.24 232.32C55.504 226.144 186.288 211.456 229.416 309.504C202.831 317.87 175 321.58 147.152 320.472V320.448ZM332.848 320.448C305 321.547 277.171 317.836 250.584 309.48C293.704 211.464 424.48 226.152 460.8 232.32C435.728 287.552 392.744 317.2 332.848 320.472V320.448Z" fill="url(#paint0_linear)"/>
<path d="M248 58.336H232V74.336H248V58.336Z" fill="url(#paint1_linear)"/>
<path d="M248 90.336H232V106.336H248V90.336Z" fill="url(#paint2_linear)"/>
<path d="M248 122.336H232V138.336H248V122.336Z" fill="url(#paint3_linear)"/>
<path d="M96 122.336C96.3965 143.653 102.377 164.493 113.344 182.776L126.656 173.896C117.482 158.225 112.439 140.481 112 122.328L96 122.336Z" fill="url(#paint4_linear)"/>
<path d="M384 122.336H368C367.591 140.491 362.546 158.24 353.344 173.896L366.656 182.776C377.623 164.493 383.603 143.653 384 122.336V122.336Z" fill="url(#paint5_linear)"/>
<defs>
<linearGradient id="paint0_linear" x1="-16" y1="168.208" x2="461.456" y2="168.208" gradientUnits="userSpaceOnUse">
<stop stop-color="#84AA50"/>
<stop offset="1" stop-color="#00ACC9"/>
</linearGradient>
<linearGradient id="paint1_linear" x1="232" y1="367.008" x2="1186.91" y2="367.008" gradientUnits="userSpaceOnUse">
<stop stop-color="#84AA50"/>
<stop offset="1" stop-color="#00ACC9"/>
</linearGradient>
<linearGradient id="paint2_linear" x1="232" y1="463.008" x2="1186.91" y2="463.008" gradientUnits="userSpaceOnUse">
<stop stop-color="#84AA50"/>
<stop offset="1" stop-color="#00ACC9"/>
</linearGradient>
<linearGradient id="paint3_linear" x1="232" y1="559.008" x2="1186.91" y2="559.008" gradientUnits="userSpaceOnUse">
<stop stop-color="#84AA50"/>
<stop offset="1" stop-color="#00ACC9"/>
</linearGradient>
<linearGradient id="paint4_linear" x1="96" y1="1939.94" x2="1925.61" y2="1939.94" gradientUnits="userSpaceOnUse">
<stop stop-color="white"/>
<stop offset="1" stop-color="#00ACC9"/>
</linearGradient>
<linearGradient id="paint5_linear" x1="353.344" y1="1939.71" x2="2182.96" y2="1939.71" gradientUnits="userSpaceOnUse">
<stop stop-color="white"/>
<stop offset="1" stop-color="#00ACC9"/>
</linearGradient>
</defs>
</svg>
