<svg id="Capa_1" enable-background="new 0 0 512 512" height="512" viewBox="0 0 512 512" width="512" xmlns="http://www.w3.org/2000/svg"><g><path d="m506.269 341.391c-.783-.712-16.456-14.846-40.388-28.484 42.137-65.152 45.942-139.62 46.104-143.351.185-4.202-1.404-8.288-4.379-11.262-2.974-2.975-7.075-4.553-11.262-4.379-2.478.109-36.172 1.826-77.611 15.312-4.562-49.478-19.771-86.15-20.501-87.886-1.631-3.877-4.814-6.891-8.774-8.308-3.959-1.416-8.333-1.107-12.054.857-1.543.814-33.426 17.836-66.653 50.044-19.679-38.434-42.026-63.181-43.691-64.998-2.841-3.102-6.854-4.867-11.06-4.867s-8.219 1.766-11.06 4.867c-1.665 1.818-24.012 26.564-43.691 64.998-33.227-32.208-65.111-49.23-66.654-50.044-3.72-1.963-8.092-2.274-12.053-.857-3.96 1.417-7.144 4.431-8.774 8.308-.73 1.736-15.939 38.408-20.502 87.886-41.438-13.486-75.133-15.203-77.611-15.312-4.193-.18-8.288 1.405-11.262 4.379s-4.563 7.06-4.379 11.262c.163 3.73 3.968 78.199 46.105 143.351-23.932 13.638-39.605 27.772-40.389 28.484-5.146 4.68-6.399 12.284-3.028 18.368 1.908 3.443 47.574 84.462 121.217 96.603 6.353 1.047 12.852 1.57 19.48 1.57 16.618 0 34.053-3.286 52.062-9.829 15.879-5.77 31.874-13.922 47.621-24.25 7.047.793 11.441 1.012 12.277 1.049.192.008.381.011.571.013.014 0 .028.002.043.002.008 0 .017-.001.025-.001h.001.001c.008 0 .017.001.025.001.014 0 .028-.002.043-.002.19-.001.38-.004.571-.013.837-.037 5.23-.256 12.277-1.049 15.747 10.328 31.742 18.481 47.621 24.25 18.01 6.544 35.443 9.829 52.062 9.829 6.627 0 13.128-.523 19.48-1.57 73.642-12.141 119.308-93.16 121.216-96.603 3.373-6.084 2.12-13.688-3.026-18.368zm-90.951-13.158c-38.459 38.458-91.028 54.883-125.242 61.802 20.762-30.782 48.33-82.478 50.663-142.418 45.561-43.389 109.042-57.443 139.4-61.827-4.439 31.015-18.941 96.562-64.821 142.443zm-38.95-218.615c4.864 15.746 11.298 41.305 13.136 70.772-16.989 7.523-34.335 17.175-50.675 29.543-2.805-20.277-8.236-39.347-14.918-56.663 19.321-20.201 39.299-34.954 52.457-43.652zm-120.368-16.658c18.793 25.143 54.907 81.879 54.907 146.532 0 64.68-36.145 121.436-54.925 146.559-18.793-25.07-54.887-81.674-54.887-146.559-.001-64.653 36.117-121.394 54.905-146.532zm-120.369 16.658c13.162 8.699 33.138 23.451 52.457 43.652-6.682 17.317-12.113 36.387-14.918 56.663-16.34-12.368-33.686-22.02-50.675-29.543 1.838-29.469 8.274-55.03 13.136-70.772zm35.631 137.999c2.333 59.939 29.901 111.635 50.663 142.417-34.219-6.92-86.785-23.345-125.241-61.801-45.716-45.717-60.299-111.378-64.789-142.438 30.379 4.391 93.825 18.451 139.367 61.822zm-42.462 179.143c-45.241-7.458-79.414-50.711-93.196-71.021 6.737-5.107 16.64-12.007 28.564-18.548 3.569 4.182 7.326 8.278 11.302 12.254 37.216 37.216 84.551 56.136 121.344 65.724-20.073 8.971-44.216 15.513-68.014 11.591zm254.4 0c-23.795 3.921-47.939-2.621-68.013-11.592 36.794-9.588 84.128-28.508 121.343-65.723 3.976-3.976 7.733-8.072 11.303-12.254 11.925 6.542 21.828 13.443 28.563 18.548-13.79 20.321-47.961 63.564-93.196 71.021z"/></g></svg>