<svg id="_x33_0" enable-background="new 0 0 64 64" height="512" viewBox="0 0 64 64" width="512" xmlns="http://www.w3.org/2000/svg" xmlns:xlink="http://www.w3.org/1999/xlink"><linearGradient id="SVGID_1_" gradientUnits="userSpaceOnUse" x1="32" x2="32" y1="63" y2="1"><stop offset="0" stop-color="#9f2fff"/><stop offset="1" stop-color="#0bb1d3"/></linearGradient><path d="m47 41v-2h4v2zm-24-2h-4v2h4zm4 6h-12v-10h12zm-2-8h-8v6h8zm-20 4h4v-2h-4zm-4-1.561v-10.439c0-1.103.897-2 2-2h12v-14h-2c-1.103 0-2-.897-2-2v-2c0-1.103.897-2 2-2v-2c0-1.103.897-2 2-2h8.184c.414-1.161 1.514-2 2.816-2 .771 0 1.468.301 2 .78.532-.479 1.229-.78 2-.78s1.468.301 2 .78c.532-.479 1.229-.78 2-.78 1.302 0 2.402.839 2.816 2h24.184c1.103 0 2 .897 2 2v2c0 1.103-.897 2-2 2v2c0 1.103-.897 2-2 2h-22v14h4.101c.465-2.279 2.484-4 4.899-4s4.435 1.721 4.899 4h2.101c1.103 0 2 .897 2 2v10.439c0 8.761-5.724 16.573-14 19.282v2.279c0 1.103-.897 2-2 2h-22c-1.103 0-2-.897-2-2v-2.279c-8.276-2.709-14-10.52-14-19.282zm38 19.561h-22v2.002l22-.002zm11.273-10h-44.546c2.326 3.778 5.99 6.699 10.432 8h23.681c4.442-1.301 8.107-4.222 10.433-8zm-46.905-6h7.632v-6h-8v2.439c0 1.213.135 2.402.368 3.561zm.517 2c.22.684.48 1.351.777 2h46.677c.297-.649.557-1.316.777-2h-9.116v-3.082c-.619.36-1.29.635-2 .819v2.263h-12v-10h2v-2h-28v2h10v10zm27.378-8h-.263v6h8c-3.719 0-6.845-2.555-7.737-6zm15.737-2h6v-2h-6zm-2 5.274v2.726h7.632c.233-1.159.368-2.348.368-3.561v-2.439h-6.263c-.319 1.231-.921 2.346-1.737 3.274zm2-11.274v2h6v-2zm-10 6c0 1.103.897 2 2 2s2-.897 2-2v-2h-4zm0-6v2h4v-2zm22-20h-22v2h22zm2-4h-24v2h24zm-28-1v31c0 3.309 2.691 6 6 6s6-2.691 6-6v-6c0-1.103.897-2 2-2h1.829c-.413-1.164-1.525-2-2.829-2-1.654 0-3 1.346-3 3v7c0 2.206-1.794 4-4 4s-4-1.794-4-4v-31c0-.551-.448-1-1-1s-1 .449-1 1zm-4 0v23h2v-23c0-.551-.448-1-1-1s-1 .449-1 1zm-4 0v23h2v-23c0-.551-.448-1-1-1s-1 .449-1 1zm-4 5v18h2v-18zm-6-2h8v-2h-8zm0 4v-2h-2v2zm2 16h2v-18h-2zm-14 2v2h28v-2z" fill="url(#SVGID_1_)"/></svg>